<?xml version="1.0" encoding="UTF-8"?>
<svg version="1.1" xmlns="http://www.w3.org/2000/svg" width="139" height="137">
<path d="M0 0 C2.96484375 2.12890625 2.96484375 2.12890625 5 4 C5 4.66 5 5.32 5 6 C5.66 6 6.32 6 7 6 C8.5078125 7.6796875 8.5078125 7.6796875 10.125 9.875 C10.66382812 10.59429688 11.20265625 11.31359375 11.7578125 12.0546875 C13 14 13 14 13 16 C13.66 16 14.32 16 15 16 C20.25690431 26.69565121 23.37831515 35.08307286 23 47 C22.34 46.67 21.68 46.34 21 46 C21.103125 45.113125 21.20625 44.22625 21.3125 43.3125 C21.27213475 33.32209955 15.02357551 22.6443257 9 15 C7.36296996 13.63044234 5.69856792 12.29244829 4 11 C3.278125 10.21625 2.55625 9.4325 1.8125 8.625 C-9.65276055 -2.07590985 -23.80902412 -5.64098249 -39.0703125 -5.24609375 C-49.72466312 -4.57887299 -60.37131163 -0.52391716 -68.7265625 6.19140625 C-71 8 -71 8 -73 8 C-73.26296875 8.58910156 -73.5259375 9.17820312 -73.796875 9.78515625 C-75.05137365 12.09457421 -76.40838087 13.57514191 -78.25 15.4375 C-87.17842375 25.53777937 -91.30544055 39.60538905 -90.87109375 52.96484375 C-89.89150291 61.65760929 -87.95156644 70.14442547 -83.37109375 77.6796875 C-82 80 -82 80 -82 82 C-81.34 82.33 -80.68 82.66 -80 83 C-79.1028125 84.1446875 -79.1028125 84.1446875 -78.1875 85.3125 C-76.08227545 88.09467976 -76.08227545 88.09467976 -73.25 90.1875 C-72.5075 90.785625 -71.765 91.38375 -71 92 C-71 92.66 -71 93.32 -71 94 C-69.90751953 94.41958984 -69.90751953 94.41958984 -68.79296875 94.84765625 C-66.20207803 95.91662515 -63.78639535 97.12490428 -61.3125 98.4375 C-47.45826646 105.28359786 -32.30372948 106.24114273 -17.390625 101.8671875 C-14.46431517 100.80568296 -11.73885556 99.47476838 -9 98 C-8.01 98 -7.02 98 -6 98 C-6 97.34 -6 96.68 -6 96 C-4.948125 95.443125 -3.89625 94.88625 -2.8125 94.3125 C8.09413923 88.01768618 16.02156324 75.33739925 19.78125 63.55078125 C20.99481683 58.43773866 21.50245112 53.22426321 22 48 C22.33 48 22.66 48 23 48 C23.57013095 61.28193943 20.80649143 71.13456099 15 83 C14.34 83 13.68 83 13 83 C12.938125 83.7425 12.87625 84.485 12.8125 85.25 C11.73716473 88.8895963 10.03762847 89.79081566 7 92 C6.2575 92.78375 5.515 93.5675 4.75 94.375 C-7.03679414 105.62603077 -21.60015671 109.38856464 -37.53369141 109.37280273 C-48.31059279 109.09760218 -57.65810336 105.14542388 -67 100 C-67 99.34 -67 98.68 -67 98 C-67.70125 97.773125 -68.4025 97.54625 -69.125 97.3125 C-80.76564383 91.99829303 -87.72677612 78.46054753 -92.12890625 67.08203125 C-96.47786703 51.69490095 -95.93726178 35.39230941 -88.4609375 21.046875 C-84.6893202 14.88140015 -80.30609828 8.94016047 -75 4 C-74.34 4 -73.68 4 -73 4 C-73 3.34 -73 2.68 -73 2 C-51.13149159 -15.71795477 -23.10147774 -14.02136 0 0 Z " fill="#020202" transform="translate(104,20)"/>
<path d="M0 0 C2.125 0.9375 2.125 0.9375 4 2 C4 2.99 4 3.98 4 5 C4.66 5 5.32 5 6 5 C6 5.66 6 6.32 6 7 C8.36539052 6.87943404 8.36539052 6.87943404 11 6 C12.35827971 4.35360035 13.69254251 2.68704193 15 1 C17.25 0.1875 17.25 0.1875 19 0 C19.66 1.32 20.32 2.64 21 4 C20.03900391 4.85271484 20.03900391 4.85271484 19.05859375 5.72265625 C13.8827007 10.34316287 8.84928806 15.0390915 4 20 C-1 25 -1 25 -2.8125 26.5 C-4.51035354 28.6446571 -4.21486964 30.34994106 -4 33 C-3.360625 33.268125 -2.72125 33.53625 -2.0625 33.8125 C0 35 0 35 1 38 C2.485 38.495 2.485 38.495 4 39 C4 59.13 4 79.26 4 100 C2.68 100 1.36 100 0 100 C0.00666183 98.9830883 0.00666183 98.9830883 0.01345825 97.94563293 C0.05770785 90.88915108 0.0878733 83.83270865 0.10986328 76.77612305 C0.1199203 74.14264322 0.1335676 71.50917455 0.15087891 68.87573242 C0.1751399 65.090304 0.1864862 61.30502324 0.1953125 57.51953125 C0.21079636 55.7536541 0.21079636 55.7536541 0.22659302 53.95210266 C0.22674408 52.85133896 0.22689514 51.75057526 0.22705078 50.61645508 C0.23371262 49.16750603 0.23371262 49.16750603 0.24050903 47.68928528 C-0.23351159 42.38895766 -2.29327825 39.33278527 -6.02734375 35.6796875 C-6.81947266 34.89722656 -7.61160156 34.11476562 -8.42773438 33.30859375 C-9.25595703 32.50550781 -10.08417969 31.70242187 -10.9375 30.875 C-11.76185547 30.06417969 -12.58621094 29.25335938 -13.43554688 28.41796875 C-14.9665837 26.91305034 -16.50068308 25.41123674 -18.03881836 23.91357422 C-19.7051384 22.28770388 -21.35818084 20.65054708 -23 19 C-22.505 17.515 -22.505 17.515 -22 16 C-21.01 15.67 -20.02 15.34 -19 15 C-19 15.66 -19 16.32 -19 17 C-18.34 17 -17.68 17 -17 17 C-16.34 18.65 -15.68 20.3 -15 22 C-14.34 22 -13.68 22 -13 22 C-13 22.66 -13 23.32 -13 24 C-11.68 24.66 -10.36 25.32 -9 26 C-8.54625 25.505 -8.0925 25.01 -7.625 24.5 C-6 23 -6 23 -4 23 C-4 21.68 -4 20.36 -4 19 C-4.66 18.67 -5.32 18.34 -6 18 C-6 17.34 -6 16.68 -6 16 C-6.66 16 -7.32 16 -8 16 C-10.73397536 13.47107279 -12.93063422 11.10404867 -15 8 C-14.34 7.34 -13.68 6.68 -13 6 C-12.01 6 -11.02 6 -10 6 C-10 6.66 -10 7.32 -10 8 C-9.34 8 -8.68 8 -8 8 C-6.2734375 9.75 -6.2734375 9.75 -4.375 12 C-3.42753906 13.11375 -3.42753906 13.11375 -2.4609375 14.25 C-1.97882812 14.8275 -1.49671875 15.405 -1 16 C-0.38125 15.690625 0.2375 15.38125 0.875 15.0625 C2.25 14.375 3.625 13.6875 5 13 C3.50171577 10.22817418 2.40090698 8.28636213 -0.1875 6.4375 C-1.0846875 5.7259375 -1.0846875 5.7259375 -2 5 C-2 3.68 -2 2.36 -2 1 C-1.34 0.67 -0.68 0.34 0 0 Z " fill="#020202" transform="translate(61,19)"/>
<path d="M0 0 C0.99 0.66 1.98 1.32 3 2 C2.875 3.6875 2.875 3.6875 2 6 C0.02043058 7.69088222 -1.97945196 9.35830472 -4 11 C-4.33 11.99 -4.66 12.98 -5 14 C-4.34 14 -3.68 14 -3 14 C-3 14.66 -3 15.32 -3 16 C-1.68 16 -0.36 16 1 16 C1.66 16 2.32 16 3 16 C3.33 15.01 3.66 14.02 4 13 C5.32 13.33 6.64 13.66 8 14 C8 15.32 8 16.64 8 18 C2.77272727 23 2.77272727 23 0 23 C-0.24621094 23.58910156 -0.49242188 24.17820312 -0.74609375 24.78515625 C-2.58691663 28.0367032 -5.30827509 29.84966829 -8.22265625 32.12109375 C-10.39542212 34.41801767 -10.75745533 35.87661862 -11 39 C-10.67 39.99 -10.34 40.98 -10 42 C-9.67 41.34 -9.34 40.68 -9 40 C-8.34 40 -7.68 40 -7 40 C-7 39.34 -7 38.68 -7 38 C-6.34 38 -5.68 38 -5 38 C-5 37.34 -5 36.68 -5 36 C-4.34 36 -3.68 36 -3 36 C-3 35.34 -3 34.68 -3 34 C-1.3777546 32.29006566 0.29413425 30.62652316 2 29 C2.598125 28.401875 3.19625 27.80375 3.8125 27.1875 C4.204375 26.795625 4.59625 26.40375 5 26 C5.99 26.66 6.98 27.32 8 28 C7.43991823 31.58607913 6.29868576 32.93855609 3.5 35.1875 C0.25962333 37.91222902 -2.8849644 40.68968176 -5.9375 43.625 C-7.06478516 44.69621094 -7.06478516 44.69621094 -8.21484375 45.7890625 C-10.19639015 48.24323157 -10.657301 49.89938998 -11 53 C-10.34 53 -9.68 53 -9 53 C-7.61767557 51.37373596 -6.28062485 49.7074998 -5 48 C-3.68 48.66 -2.36 49.32 -1 50 C-4.37681159 56.75362319 -4.37681159 56.75362319 -7.6875 58.0625 C-8.450625 58.371875 -9.21375 58.68125 -10 59 C-11.55041606 63.65124817 -10.97005997 68.66607775 -10.7421875 73.51171875 C-11 76 -11 76 -12.5078125 77.83203125 C-13.00023438 78.21746094 -13.49265625 78.60289063 -14 79 C-15.90083414 74.19789271 -16.29363619 69.85388948 -16.265625 64.75 C-16.26753845 63.97366211 -16.2694519 63.19732422 -16.27142334 62.39746094 C-16.27277826 60.76366856 -16.26913043 59.12986516 -16.26074219 57.49609375 C-16.25003255 55.00756449 -16.26066081 52.51975703 -16.2734375 50.03125 C-16.27211578 48.43749842 -16.26955313 46.84374729 -16.265625 45.25 C-16.26967346 44.51233398 -16.27372192 43.77466797 -16.27789307 43.01464844 C-16.23153508 37.86046958 -15.84903087 33.13349716 -12.375 29.125 C-11.92125 28.75375 -11.4675 28.3825 -11 28 C-12.65 26.02 -14.3 24.04 -16 22 C-15.01 20.515 -15.01 20.515 -14 19 C-11.04590299 20.37154504 -8.55991624 21.98863724 -6 24 C-5.34 23.01 -4.68 22.02 -4 21 C-7.72346836 16.57905197 -11.29521038 12.42166518 -16 9 C-15.34 7.68 -14.68 6.36 -14 5 C-13.401875 5.33 -12.80375 5.66 -12.1875 6 C-9.01029411 7.45243698 -7.28700877 7.09566959 -4 6 C-3.29788106 4.34795544 -2.63028587 2.68076231 -2 1 C-1.34 0.67 -0.68 0.34 0 0 Z " fill="#030303" transform="translate(97,34)"/>
<path d="M0 0 C4.21702942 0.47920789 5.84193831 2.7344819 8.5 5.875 C11.63137609 9.56009737 11.63137609 9.56009737 15.28125 12.6953125 C15.8484375 13.12585937 16.415625 13.55640625 17 14 C17 14.66 17 15.32 17 16 C17.66 16 18.32 16 19 16 C21.13363651 19.20045476 21.24672228 19.98629436 21.22705078 23.6550293 C21.22689972 24.59577805 21.22674866 25.53652679 21.22659302 26.50578308 C21.21627045 27.51836685 21.20594788 28.53095062 21.1953125 29.57421875 C21.1924826 30.61318802 21.18965271 31.65215729 21.18673706 32.72261047 C21.17553282 36.04435697 21.15042764 39.36583485 21.125 42.6875 C21.11497052 44.93814715 21.10584462 47.18879852 21.09765625 49.43945312 C21.0755927 54.95972722 21.04211271 60.47984442 21 66 C19.515 66.495 19.515 66.495 18 67 C17.26718537 61.3206866 16.94458172 55.98278681 17.2578125 50.26171875 C16.93479588 47.427982 15.77422815 46.17830629 14 44 C14 43.34 14 42.68 14 42 C13.46375 41.773125 12.9275 41.54625 12.375 41.3125 C9.17539839 39.54429911 6.70962777 37.46329797 4 35 C4 34.34 4 33.68 4 33 C3.34 32.67 2.68 32.34 2 32 C2.66 32 3.32 32 4 32 C4 31.34 4 30.68 4 30 C5.875 30.25 5.875 30.25 8 31 C9.25 33.0625 9.25 33.0625 10 35 C10.66 35 11.32 35 12 35 C13.625 36.375 13.625 36.375 15 38 C15 38.66 15 39.32 15 40 C15.66 40 16.32 40 17 40 C17.53061982 36.96788672 17.54547478 34.83457641 15.828125 32.20703125 C13.07259118 29.02504577 10.09524994 26.08735666 7.0859375 23.1484375 C6.58682861 22.65819092 6.08771973 22.16794434 5.57348633 21.6628418 C4.57656153 20.68943469 3.57128903 19.72449482 2.55737305 18.76879883 C1.31539357 17.56805229 0.15092388 16.2882855 -1 15 C-1 14.01 -1 13.02 -1 12 C0.32 11.67 1.64 11.34 3 11 C3 11.66 3 12.32 3 13 C3.66 13 4.32 13 5 13 C6.7265625 14.6796875 6.7265625 14.6796875 8.625 16.875 C9.25664063 17.59429687 9.88828125 18.31359375 10.5390625 19.0546875 C12 21 12 21 12 23 C14.475 23.99 14.475 23.99 17 25 C16.37240135 22.07120629 15.41377341 19.63904371 14 17 C13.34 17 12.68 17 12 17 C12 16.34 12 15.68 12 15 C11.01 14.67 10.02 14.34 9 14 C9 13.34 9 12.68 9 12 C8.443125 11.773125 7.88625 11.54625 7.3125 11.3125 C3.31561114 9.04399551 0.46033351 6.38100054 -1 2 C-0.67 1.34 -0.34 0.68 0 0 Z " fill="#020202" transform="translate(34,46)"/>
<path d="M0 0 C1.9375 0.3125 1.9375 0.3125 4 1 C4.33 1.99 4.66 2.98 5 4 C4.45730469 4.45890625 3.91460937 4.9178125 3.35546875 5.390625 C2.64003906 6.00421875 1.92460938 6.6178125 1.1875 7.25 C0.47980469 7.85328125 -0.22789063 8.4565625 -0.95703125 9.078125 C-3.05997556 10.93917218 -3.05997556 10.93917218 -4.63671875 13.234375 C-5.08660156 13.81703125 -5.53648438 14.3996875 -6 15 C-6.66 15 -7.32 15 -8 15 C-9.16671704 23.75017112 -9.12901157 32.48090625 -9.09765625 41.2890625 C-9.09578737 42.84418695 -9.09436569 44.399312 -9.09336853 45.95443726 C-9.08958037 50.01497063 -9.0797824 54.07546729 -9.06866455 58.13598633 C-9.05837016 62.29247542 -9.05385383 66.44897054 -9.04882812 70.60546875 C-9.03815621 78.73699587 -9.02112515 86.86849335 -9 95 C-10.485 95.495 -10.485 95.495 -12 96 C-14.43326406 93.56673594 -14.24913293 92.25335584 -14.29327393 88.93128967 C-14.29236755 88.22789963 -14.29146118 87.52450958 -14.29052734 86.79980469 C-14.29724457 86.05812546 -14.30396179 85.31644623 -14.31088257 84.55229187 C-14.32993142 82.09208533 -14.3337907 79.63215078 -14.3359375 77.171875 C-14.34236252 75.46274706 -14.34909066 73.75362023 -14.35610962 72.04449463 C-14.36810092 68.45655774 -14.37178873 64.86871724 -14.37060547 61.28076172 C-14.3704026 56.68952637 -14.39766288 52.09891226 -14.43214989 47.50782394 C-14.45442567 43.9749876 -14.45844275 40.44230032 -14.45738602 36.90940094 C-14.45974257 35.21735755 -14.46856919 33.52531008 -14.48405075 31.83333588 C-14.5037176 29.46104496 -14.49787014 27.09008729 -14.48583984 24.71777344 C-14.49707886 24.02248032 -14.50831787 23.32718719 -14.51989746 22.61082458 C-14.43780089 16.21798509 -11.70517243 12.74577178 -7.375 8.3125 C-6.59125 7.549375 -5.8075 6.78625 -5 6 C-4.34 5.01 -3.68 4.02 -3 3 C-2.34 3 -1.68 3 -1 3 C-0.67 2.01 -0.34 1.02 0 0 Z " fill="#010101" transform="translate(85,24)"/>
<path d="" fill="#FFFFFF" transform="translate(0,0)"/>
<path d="" fill="#FFFFFF" transform="translate(0,0)"/>
<path d="" fill="#FFFFFF" transform="translate(0,0)"/>
<path d="" fill="#FFFFFF" transform="translate(0,0)"/>
<path d="" fill="#FFFFFF" transform="translate(0,0)"/>
<path d="" fill="#00FFFF" transform="translate(0,0)"/>
<path d="" fill="#FFFFFF" transform="translate(0,0)"/>
<path d="" fill="#FFFFFF" transform="translate(0,0)"/>
<path d="" fill="#FFFFFF" transform="translate(0,0)"/>
<path d="" fill="#FFFFFF" transform="translate(0,0)"/>
<path d="" fill="#FFFFFF" transform="translate(0,0)"/>
<path d="" fill="#FFFFFF" transform="translate(0,0)"/>
<path d="" fill="#FFFFFF" transform="translate(0,0)"/>
<path d="" fill="#FFFFFF" transform="translate(0,0)"/>
<path d="" fill="#FFFFFF" transform="translate(0,0)"/>
<path d="" fill="#FFFFFF" transform="translate(0,0)"/>
<path d="" fill="#FFFFFF" transform="translate(0,0)"/>
<path d="" fill="#FFFFFF" transform="translate(0,0)"/>
<path d="" fill="#FFFFFF" transform="translate(0,0)"/>
<path d="" fill="#FFFFFF" transform="translate(0,0)"/>
<path d="" fill="#FFFFFF" transform="translate(0,0)"/>
<path d="" fill="#FFFFFF" transform="translate(0,0)"/>
<path d="" fill="#FFFFFF" transform="translate(0,0)"/>
<path d="" fill="#FFFFFF" transform="translate(0,0)"/>
<path d="" fill="#FFFFFF" transform="translate(0,0)"/>
<path d="" fill="#FFFFFF" transform="translate(0,0)"/>
<path d="" fill="#FFFFFF" transform="translate(0,0)"/>
<path d="" fill="#FFFFFF" transform="translate(0,0)"/>
<path d="" fill="#FFFFFF" transform="translate(0,0)"/>
<path d="" fill="#FFFFFF" transform="translate(0,0)"/>
<path d="" fill="#FFFFFF" transform="translate(0,0)"/>
<path d="" fill="#FFFFFF" transform="translate(0,0)"/>
<path d="" fill="#FFFFFF" transform="translate(0,0)"/>
<path d="" fill="#FFFFFF" transform="translate(0,0)"/>
<path d="" fill="#FFFFFF" transform="translate(0,0)"/>
<path d="" fill="#FFFFFF" transform="translate(0,0)"/>
<path d="" fill="#FFFFFF" transform="translate(0,0)"/>
<path d="" fill="#FFFFFF" transform="translate(0,0)"/>
<path d="" fill="#FFFFFF" transform="translate(0,0)"/>
<path d="" fill="#FFFFFF" transform="translate(0,0)"/>
<path d="" fill="#FFFFFF" transform="translate(0,0)"/>
<path d="" fill="#FFFFFF" transform="translate(0,0)"/>
<path d="" fill="#FFFFFF" transform="translate(0,0)"/>
<path d="" fill="#FFFFFF" transform="translate(0,0)"/>
<path d="" fill="#FFFFFF" transform="translate(0,0)"/>
<path d="" fill="#FFFFFF" transform="translate(0,0)"/>
<path d="" fill="#FFFFFF" transform="translate(0,0)"/>
<path d="" fill="#FFFFFF" transform="translate(0,0)"/>
<path d="" fill="#FFFFFF" transform="translate(0,0)"/>
<path d="" fill="#FFFFFF" transform="translate(0,0)"/>
<path d="" fill="#FFFFFF" transform="translate(0,0)"/>
<path d="" fill="#FFFFFF" transform="translate(0,0)"/>
<path d="" fill="#040404" transform="translate(0,0)"/>
<path d="" fill="#FFFFFF" transform="translate(0,0)"/>
<path d="" fill="#FFFFFF" transform="translate(0,0)"/>
<path d="" fill="#FFFFFF" transform="translate(0,0)"/>
<path d="" fill="#FFFFFF" transform="translate(0,0)"/>
<path d="" fill="#FFFFFF" transform="translate(0,0)"/>
<path d="" fill="#FFFFFF" transform="translate(0,0)"/>
<path d="" fill="#FFFFFF" transform="translate(0,0)"/>
<path d="" fill="#FFFFFF" transform="translate(0,0)"/>
<path d="" fill="#FFFFFF" transform="translate(0,0)"/>
<path d="" fill="#FFFFFF" transform="translate(0,0)"/>
<path d="" fill="#FFFFFF" transform="translate(0,0)"/>
<path d="" fill="#FFFFFF" transform="translate(0,0)"/>
<path d="" fill="#FFFFFF" transform="translate(0,0)"/>
<path d="" fill="#FFFFFF" transform="translate(0,0)"/>
<path d="" fill="#FFFFFF" transform="translate(0,0)"/>
<path d="" fill="#FFFFFF" transform="translate(0,0)"/>
<path d="" fill="#FFFFFF" transform="translate(0,0)"/>
<path d="" fill="#FFFFFF" transform="translate(0,0)"/>
<path d="" fill="#FFFFFF" transform="translate(0,0)"/>
<path d="" fill="#FFFFFF" transform="translate(0,0)"/>
<path d="" fill="#FFFFFF" transform="translate(0,0)"/>
<path d="" fill="#FFFFFF" transform="translate(0,0)"/>
<path d="" fill="#FFFFFF" transform="translate(0,0)"/>
<path d="" fill="#FFFFFF" transform="translate(0,0)"/>
</svg>
